# AST/ASF file generated using VICON BodyLanguage
# -----------------------------------------------
:version 1.10
:name VICON
:units
  mass 1.0
  length 0.45
  angle deg
:documentation
   .ast/.asf automatically generated from VICON data using
   VICON BodyBuilder and BodyLanguage model FoxedUp or BRILLIANT.MOD
:root
   order TX TY TZ RX RY RZ
   axis XYZ
   position 0 0 0  
   orientation 0 0 0 
:bonedata
  begin
     id 1 
     name lhipjoint
     direction 0.650112 -0.723553 0.232005 
     length 2.45805 
     axis 0 0 0  XYZ
  end
  begin
     id 2 
     name lfemur
     direction 0.34202 -0.939693 0  
     length 7.00073  
     axis 0 0 20  XYZ
    dof rx ry rz
    limits (-160.0 20.0)
           (-70.0 70.0)
           (-60.0 70.0)
  end
  begin
     id 3 
     name ltibia
     direction 0.34202 -0.939693 0   
     length 7.8748   
     axis 0 0 20   XYZ
    dof rx
    limits (-10.0 170.0)
  end
  begin
     id 4 
     name lfoot
     direction 0.0542825 -0.14914 0.987325   
     length 1.75978   
     axis -90 7.62852e-016 20   XYZ
    dof rx rz
    limits (-45.0 90.0)
           (-70.0 20.0)
  end
  begin
     id 5 
     name ltoes
     direction 1.53509e-011 -4.21906e-011 1   
     length 0.893912   
     axis -90 7.62852e-016 20   XYZ
    dof rx
    limits (-90.0 20.0)
  end
  begin
     id 6 
     name rhipjoint
     direction -0.637897 -0.733345 0.235145   
     length 2.42522  
     axis 0 0 0  XYZ 
  end
  begin
     id 7 
     name rfemur
     direction -0.34202 -0.939693 0   
     length 7.02549   
     axis 0 0 -20   XYZ
    dof rx ry rz
    limits (-160.0 20.0)
           (-70.0 70.0)
           (-70.0 60.0)
  end
  begin
     id 8 
     name rtibia
     direction -0.34202 -0.939693 0   
     length 7.71512   
     axis 0 0 -20   XYZ
    dof rx
    limits (-10.0 170.0)
 end
 begin
     id 9 
     name rfoot
     direction -0.0822618 -0.226012 0.970645   
     length 1.90014  
     axis -90 -7.62852e-016 -20   XYZ
    dof rx rz
    limits (-45.0 90.0)
           (-20.0 70.0)
  end
  begin
     id 10 
     name rtoes
     direction -1.53542e-011 -4.21872e-011 1   
     length 0.957341   
     axis -90 -7.62852e-016 -20   XYZ
    dof rx
    limits (-90.0 20.0)
  end
  begin
     id 11 
     name lowerback
     direction -0.0022947 0.999774 -0.0211557   
     length 1.89909   
     axis 0 0 0   XYZ
    dof rx ry rz
    limits (-20.0 45.0)
           (-30.0 30.0)
           (-30.0 30.0)
  end
  begin
     id 12 
     name upperback
     direction 0.0107737 0.998635 0.0511027   
     length 1.8853   
     axis 0 0 0   XYZ
    dof rx ry rz
    limits (-20.0 45.0)
           (-30.0 30.0)
           (-30.0 30.0)
  end
  begin
     id 13 
     name thorax
     direction 0.011824 0.998136 0.0598754   
     length 1.88911   
     axis 0 0 0   XYZ
    dof rx ry rz
    limits (-20.0 45.0)
           (-30.0 30.0)
           (-30.0 30.0)
  end
  begin
     id 14 
     name lowerneck
     direction -0.0685355 0.990319 0.120714   
     length 1.91222   
     axis 0 0 0   XYZ
    dof rx ry rz
    limits (-20.0 45.0)
           (-30.0 30.0)
           (-30.0 30.0)
  end
  begin
     id 15 
     name upperneck
     direction 0.0886204 0.955665 -0.280805   
     length 1.92526   
     axis 0 0 0   XYZ
    dof rx ry rz
    limits (-20.0 45.0)
           (-30.0 30.0)
           (-30.0 30.0)
  end
  begin
     id 16
     name head
     direction 0.0233423 0.993502 -0.111393  
     length 1.96056  
     axis 0 0 0   XYZ
    dof rx ry rz
    limits (-20.0 45.0)
           (-30.0 30.0)
           (-30.0 30.0)
  end
  begin
     id 17 
     name lclavicle
     direction 0.941873 0.32922 0.0670041  
     length 3.31705  
     axis 0 0 0   XYZ
    dof ry rz
    limits (-20.0 10.0)
           (0.0 20.0)
  end
  begin
     id 18 
     name lhumerus
     direction 1 -4.4898e-011 3.38707e-028   
     length 5.29277   
     axis 180 -30 -90   XYZ
    dof rx ry rz
    limits (-60.0 90.0)
           (-90.0 90.0)
           (-90.0 90.0)
  end
  begin
     id 19
     name lradius
     direction 1 -4.48952e-011 1.63213e-028   
     length 2.85226   
     axis 180 -30 -90   XYZ
    dof rx
    limits (-10.0 170.0)
  end
  begin
     id 20
     name lwrist
     direction 1 -4.49001e-011 1.27856e-027   
     length 1.42613   
     axis -1.61767e-015 90 90   XYZ
    dof ry
    limits (-180.0 0.0)
 end
  begin
     id 21 
     name lhand
     direction 1 -4.48976e-011 2.55931e-027   
     length 0.602097   
     axis -1.63363e-015 90 90   XYZ
    dof rx rz
    limits (-90.0 90.0)
           (-45.0 45.0)
  end
  begin
     id 22 
     name lfingers
     direction 1 -4.48986e-011 5.11684e-027   
     length 0.485426   
     axis -3.26723e-015 90 90   XYZ
    dof rx
    limits (0.0 90.0)
  end
  begin
     id 23
     name lthumb
     direction 0.707107 -6.34915e-011 0.707107   
     length 0.696978   
     axis -90 45 -2.25915e-014   XYZ
    dof rx rz
    limits (-45.0 45.0)
           (-45.0 45.0)
  end
  begin
     id 24 
     name rclavicle
     direction -0.939974 0.327078 0.0973096   
     length 3.10337  
     axis 0 0 0   XYZ 
    dof ry rz
    limits (-10.0 20.0)
           (-20.0 0.0)
  end
  begin
     id 25 
     name rhumerus
     direction -1 -4.48975e-011 1.83745e-027  
     length 5.13304   
     axis 180 30 90   XYZ
    dof rx ry rz
    limits (-90.0 60.0)
           (-90.0 90.0)
           (-90.0 90.0)
  end
  begin
     id 26 
     name rradius
     direction -1 -4.48977e-011 7.1775e-029   
     length 2.74305   
     axis 180 30 90   XYZ
    dof rx
    limits (-10.0 170.0)
  end
  begin
     id 27 
     name rwrist
     direction -1 -4.48977e-011 1.27963e-027   
     length 1.37152   
     axis -1.61767e-015 -90 -90   XYZ
    dof ry
    limits (-180.0 0.0)
  end
  begin
     id 28
     name rhand
     direction -1 -4.4888e-011 2.56782e-027   
     length 0.767976   
     axis -1.63363e-015 -90 -90   XYZ
    dof rx rz
    limits (-90.0 90.0)
           (-45.0 45.0)
  end
  begin
     id 29
     name rfingers
     direction -1 -4.48947e-011 5.12384e-027   
     length 0.619162   
     axis -3.26723e-015 -90 -90   XYZ
    dof rx
    limits (0.0 90.0)
  end
  begin
     id 30
     name rthumb
     direction -0.707107 -6.34857e-011 0.707107   
     length 0.888997   
     axis -90 -45 2.25915e-014   XYZ
    dof rx rz
    limits (-45.0 45.0)
           (-45.0 45.0)
  end
:hierarchy
  begin
    root lhipjoint rhipjoint lowerback
    lhipjoint lfemur
    lfemur ltibia
    ltibia lfoot
    lfoot ltoes
    rhipjoint rfemur
    rfemur rtibia
    rtibia rfoot
    rfoot rtoes
    lowerback upperback
    upperback thorax
    thorax lowerneck lclavicle rclavicle
    lowerneck upperneck
    upperneck head
    lclavicle lhumerus
    lhumerus lradius
    lradius lwrist
    lwrist lhand lthumb
    lhand lfingers
    rclavicle rhumerus
    rhumerus rradius
    rradius rwrist
    rwrist rhand rthumb
    rhand rfingers
  end

#!OML:ASF F:\VICON\USERDATA\INSTALL\rory3\rory3.ASF
:FULLY-SPECIFIED
:DEGREES
428
root 0.502043 16.5096 -0.369785 -8.55071 -3.9124 1.30676
lowerback 5.07124 -1.95936 -1.586
upperback 7.82709 -2.83428 4.11552
thorax 5.61148 -1.66298 5.19754
lowerneck -12.5001 -9.54267 -13.24
upperneck 20.869 -15.7759 20.8039
head 11.7754 -6.31319 7.55184
rclavicle -3.18055e-015 4.77083e-015
rhumerus -15.0732 28.0869 -80.8785
rradius 143.158
rwrist -40.916
rhand 33.4567 18.2628
rfingers 7.12502
rthumb 56.785 1.49901
lclavicle -3.18055e-015 4.77083e-015
lhumerus 5.44628 -51.4267 74.0367
lradius 141.007
lwrist 53.6928
lhand 31.4905 20.1568
lfingers 7.12502
lthumb 55.0418 38.2653
rfemur -4.77901 3.55576 15.3053
rtibia 39.327
rfoot -28.1377 -4.22413
rtoes -22.4295
lfemur -3.90868 -1.19982 -22.1471
ltibia 39.6461
lfoot -25.2968 4.76376
ltoes -16.22
429
root 0.486902 16.5144 -0.366945 -8.54436 -3.79557 1.27297
lowerback 5.15989 -1.94576 -1.4698
upperback 7.80742 -2.81063 4.08078
thorax 5.52841 -1.64113 5.09805
lowerneck -12.2572 -9.52163 -13.3251
upperneck 20.5391 -15.6755 20.8022
head 11.5856 -6.30085 7.57319
rclavicle -9.74045e-015 -4.77083e-014
rhumerus -15.0225 27.966 -80.8167
rradius 143.194
rwrist -40.8416
rhand 33.5546 18.3201
rfingers 7.12502
rthumb 56.8711 1.62726
lclavicle -9.74045e-015 -4.77083e-014
lhumerus 4.6886 -50.8381 74.3736
lradius 140.956
lwrist 53.8135
lhand 31.4596 20.108
lfingers 7.12502
lthumb 55.0141 38.2365
rfemur -4.69656 3.59695 15.4296
rtibia 39.2488
rfoot -28.0588 -4.3918
rtoes -22.5064
lfemur -3.82854 -1.28195 -22.0475
ltibia 39.4567
lfoot -25.1829 4.65523
ltoes -15.8915
430
root 0.471346 16.5213 -0.364028 -8.48382 -3.66599 1.32484
lowerback 5.19215 -1.95598 -1.51082
upperback 7.76424 -2.8225 4.07552
thorax 5.46707 -1.64728 5.11717
lowerneck -12.0326 -9.48304 -13.4737
upperneck 20.2124 -15.5151 20.7279
head 11.3865 -6.27102 7.58747
rclavicle -2.92213e-014 3.18055e-015
rhumerus -14.8299 27.857 -80.5591
rradius 143.216
rwrist -40.8454
rhand 33.5568 18.2648
rfingers 7.12502
rthumb 56.8731 1.57358
lclavicle -2.92213e-014 3.18055e-015
lhumerus 3.91325 -50.1589 74.7686
lradius 140.91
lwrist 53.7527
lhand 31.4272 20.0429
lfingers 7.12502
lthumb 54.9852 38.1923
rfemur -4.66483 3.63234 15.4481
rtibia 39.1353
rfoot -27.9908 -4.58001
rtoes -22.7468
lfemur -3.79393 -1.36789 -22.0577
ltibia 39.2589
lfoot -25.0755 4.89834
ltoes -16.9372
431
root 0.456984 16.5315 -0.357963 -8.40042 -3.48071 1.47559
lowerback 5.12166 -1.96847 -1.5996
upperback 7.74542 -2.83728 4.01261
thorax 5.48925 -1.657 5.09832
lowerneck -11.8819 -9.46701 -13.5336
upperneck 19.9053 -15.3867 20.5834
head 11.2027 -6.24868 7.55067
rclavicle -9.34288e-015 1.59028e-015
rhumerus -14.5523 27.6998 -80.2153
rradius 143.212
rwrist -40.7544
rhand 33.8405 18.5389
rfingers 7.12502
rthumb 57.1227 2.05555
lclavicle -9.34288e-015 1.59028e-015
lhumerus 3.39753 -49.5759 74.867
lradius 140.93
lwrist 53.4163
lhand 31.1048 19.9982
lfingers 7.12502
lthumb 54.6974 38.3535
rfemur -4.61989 3.60679 15.3348
rtibia 38.9803
rfoot -27.9153 -4.73875
rtoes -22.8905
lfemur -3.7706 -1.5194 -22.2074
ltibia 39.0544
lfoot -24.9818 5.09228
ltoes -17.6842
432
root 0.442843 16.5423 -0.348789 -8.33379 -3.33484 1.52739
lowerback 5.02137 -1.95559 -1.5428
upperback 7.73623 -2.81584 3.94186
thorax 5.52567 -1.64024 4.9876
lowerneck -11.6441 -9.47105 -13.578
upperneck 19.5802 -15.3001 20.4454
head 11.0046 -6.24904 7.50877
rclavicle 4.31363e-014 -3.81667e-014
rhumerus -14.2776 27.4999 -79.79
rradius 143.224
rwrist -40.609
rhand 34.0221 18.873
rfingers 7.12502
rthumb 57.2821 2.52442
lclavicle 4.31363e-014 -3.81667e-014
lhumerus 3.11379 -49.1049 74.6273
lradius 140.96
lwrist 53.1921
lhand 30.5062 19.8402
lfingers 7.12502
lthumb 54.1615 38.5685
rfemur -4.5316 3.63406 15.3507
rtibia 38.8092
rfoot -27.8321 -4.97129
rtoes -23.1183
lfemur -3.70152 -1.65881 -22.2394
ltibia 38.8298
lfoot -24.8981 4.97419
ltoes -17.0057
433
root 0.428756 16.5525 -0.340841 -8.21835 -3.18841 1.49417
lowerback 4.92474 -1.95099 -1.37509
upperback 7.65004 -2.80046 3.84976
thorax 5.47027 -1.61657 4.79227
lowerneck -11.1361 -9.44553 -13.6453
upperneck 19.2341 -15.2148 20.395
head 10.7579 -6.26169 7.51467
rclavicle 5.14852e-014 -1.11319e-014
rhumerus -14.1248 27.3547 -79.4577
rradius 143.271
rwrist -40.4567
rhand 34.0728 18.8393
rfingers 7.12502
rthumb 57.3266 2.52865
lclavicle 5.14852e-014 -1.11319e-014
lhumerus 2.95017 -48.6581 74.0669
lradius 140.944
lwrist 53.4064
lhand 30.1097 19.607
lfingers 7.12502
lthumb 53.8056 38.5757
rfemur -4.48253 3.62858 15.4509
rtibia 38.6149
rfoot -27.7217 -5.16787
rtoes -22.8251
lfemur -3.68773 -1.77223 -22.1536
ltibia 38.5821
lfoot -24.7783 4.713
ltoes -16.0728
434
root 0.413599 16.562 -0.332786 -8.06689 -3.02765 1.60166
lowerback 4.75416 -1.94546 -1.40448
upperback 7.52594 -2.78585 3.7479
thorax 5.42714 -1.60375 4.69618
lowerneck -10.4978 -9.37904 -13.7477
upperneck 18.9204 -15.0726 20.2998
head 10.4852 -6.26102 7.5263
rclavicle 2.98177e-014 -2.06736e-014
rhumerus -13.9525 27.3397 -78.9325
rradius 143.26
rwrist -40.4165
rhand 34.0231 19.0524
rfingers 7.12502
rthumb 57.283 2.70457
lclavicle 2.98177e-014 -2.06736e-014
lhumerus 2.95576 -48.0789 73.3938
lradius 140.895
lwrist 53.7295
lhand 29.9521 19.4881
lfingers 7.12502
lthumb 53.6639 38.5508
rfemur -4.47548 3.63909 15.3939
rtibia 38.3884
rfoot -27.6157 -5.33411
rtoes -22.4734
lfemur -3.71424 -1.86915 -22.222
ltibia 38.3133
lfoot -24.6855 4.58637
ltoes -15.9399
435
root 0.399063 16.5729 -0.320717 -8.0113 -2.86162 1.65557
lowerback 4.6438 -1.94714 -1.36562
upperback 7.41586 -2.78102 3.66717
thorax 5.3637 -1.59298 4.58597
lowerneck -9.93003 -9.33163 -13.9201
upperneck 18.6936 -14.9484 20.1643
head 10.2654 -6.26888 7.53378
rclavicle -2.38542e-015 -6.36111e-015
rhumerus -13.6925 27.4437 -78.2076
rradius 143.277
rwrist -40.5268
rhand 33.9637 19.2544
rfingers 7.12502
rthumb 57.2308 2.86232
lclavicle -2.38542e-015 -6.36111e-015
lhumerus 3.02315 -47.503 72.6649
lradius 140.911
lwrist 53.7872
lhand 29.8474 19.5305
lfingers 7.12502
lthumb 53.5697 38.6553
rfemur -4.33599 3.65202 15.4043
rtibia 38.1182
rfoot -27.636 -5.41259
rtoes -22.5824
lfemur -3.59345 -2.00898 -22.2536
ltibia 38.0407
lfoot -24.612 4.55811
ltoes -16.0231
436
root 0.385086 16.5869 -0.306419 -7.96205 -2.77788 1.59851
lowerback 4.55199 -1.92977 -1.22409
upperback 7.26939 -2.74964 3.61523
thorax 5.24472 -1.56325 4.44942
lowerneck -9.34223 -9.2916 -14.1469
upperneck 18.5679 -14.8549 20.0419
head 10.0911 -6.2911 7.55669
rclavicle 7.35503e-015 1.43125e-014
rhumerus -13.4319 27.5245 -77.4147
rradius 143.416
rwrist -40.6483
rhand 33.8926 18.933
rfingers 7.12502
rthumb 57.1684 2.48812
lclavicle 7.35503e-015 1.43125e-014
lhumerus 3.17031 -47.0334 71.7726
lradius 140.936
lwrist 53.6096
lhand 29.7429 19.4634
lfingers 7.12502
lthumb 53.4757 38.6499
rfemur -4.18511 3.68365 15.5587
rtibia 37.8035
rfoot -27.6306 -5.59696
rtoes -22.9554
lfemur -3.451 -2.11946 -22.1614
ltibia 37.7768
lfoot -24.4972 4.59135
ltoes -16.1376
